<svg xmlns="http://www.w3.org/2000/svg" width="400" height="100" viewBox="0 0 400 100" fill="none">
  <defs><linearGradient id="w" x1="0" y1="0" x2="1" y2="1"><stop stop-color="#9ce5d0"/><stop offset=".48" stop-color="#cbb5ff"/><stop offset="1" stop-color="#8fd8ff"/></linearGradient><filter id="b"><feGaussianBlur stdDeviation="3" result="x"/><feMerge><feMergeNode in="x"/><feMergeNode in="SourceGraphic"/></feMerge></filter></defs>
  <g stroke="url(#w)" stroke-width="3" stroke-linecap="round" stroke-linejoin="round" filter="url(#b)">
    <g transform="translate(10 10)"><path d="M14 20h40v43H14z"/><path d="M22 31h24M22 42h24M22 53h15"/><path d="m48 52 8 8"/></g>
    <g transform="translate(110 10)"><path d="M14 19h40v17H14zM14 43h40v17H14z"/><path d="M23 27h20M23 51h20M29 36v7"/></g>
    <g transform="translate(210 10)"><circle cx="34" cy="27" r="10"/><circle cx="18" cy="54" r="10"/><circle cx="50" cy="54" r="10"/><path d="m27 34-5 11M41 34l5 11M28 54h12"/></g>
    <g transform="translate(310 10)"><path d="M34 13c17 11 25 27 18 42-6 13-24 17-36 8-12-10-11-28 0-39 5-5 11-8 18-11Z"/><path d="m23 42 7 7 16-18"/></g>
  </g>
</svg>
